<?xml version="1.0" encoding="UTF-8" standalone="no"?>
<!DOCTYPE svg PUBLIC "-//W3C//DTD SVG 1.1//EN" "http://www.w3.org/Graphics/SVG/1.1/DTD/svg11.dtd">
<svg width="100%" height="100%" viewBox="0 0 1920 1080" version="1.1" xmlns="http://www.w3.org/2000/svg" xmlns:xlink="http://www.w3.org/1999/xlink" xml:space="preserve" xmlns:serif="http://www.serif.com/" style="fill-rule:evenodd;clip-rule:evenodd;stroke-linejoin:round;stroke-miterlimit:2;">
    <g id="RC-Signature" serif:id="RC Signature" transform="matrix(0.185999,0,0,0.185999,49.0168,961.078)">
        <g id="FooterBackground" transform="matrix(4.04809,0,0,2.1793,-263.533,-6552.34)">
            <rect x="0" y="2982.68" width="2550" height="317.319" style="fill:rgb(10,30,66);"/>
        </g>
        <g id="SigText">
            <g transform="matrix(4.16667,0,0,4.16667,0,1.81899e-12)">
                <path d="M49.503,50.817L52.142,69.96L60.815,55.468L57.135,71.41L66.485,62.463L61.616,74.273L69.396,68.467C65.774,78.322 62.619,83.847 49.503,88.337C36.387,83.847 33.231,78.322 29.611,68.467L37.39,74.273L32.521,62.463L41.871,71.41L38.191,55.468L46.864,69.96L49.503,50.817Z" style="fill:rgb(254,255,254);fill-rule:nonzero;"/>
            </g>
            <g transform="matrix(4.16667,0,0,4.16667,0,1.81899e-12)">
                <path d="M35.763,44.403C31.789,44.403 29.416,42.276 29.416,38.703L29.416,30.149L32.711,30.149L32.711,38.568C32.711,40.644 33.802,41.786 35.789,41.786C37.826,41.786 38.906,40.692 38.906,38.627L38.906,30.149L42.222,30.149L42.222,38.646C42.222,42.198 39.748,44.403 35.763,44.403Z" style="fill:rgb(254,255,254);fill-rule:nonzero;"/>
            </g>
            <g transform="matrix(4.16667,0,0,4.16667,0,1.81899e-12)">
                <path d="M49.627,44.166L45.025,44.166L45.025,30.149L49.695,30.149C53.109,30.149 54.99,31.474 54.99,33.872C54.99,35.134 54.332,36.104 53.076,36.699C54.759,37.294 55.615,38.406 55.615,40.014C55.615,42.693 53.49,44.166 49.627,44.166ZM48.209,41.825L49.627,41.825C50.908,41.825 52.431,41.498 52.431,39.935C52.431,38.325 50.882,37.983 49.58,37.983L48.209,37.983L48.209,41.825ZM48.209,35.78L49.406,35.78C51.009,35.78 51.896,35.179 51.896,34.088C51.896,33.015 51.123,32.493 49.537,32.493L48.209,32.493L48.209,35.78Z" style="fill:rgb(254,255,254);fill-rule:nonzero;"/>
            </g>
            <g transform="matrix(4.16667,0,0,4.16667,0,1.81899e-12)">
                <path d="M64.843,44.403C60.306,44.403 57.377,41.57 57.377,37.176C57.377,32.835 60.414,29.915 64.933,29.915C66.608,29.915 68.019,30.245 69.244,30.925L69.351,30.984L68.858,33.839L68.642,33.694C67.439,32.887 66.294,32.514 65.044,32.514C62.349,32.514 60.737,34.251 60.737,37.159C60.737,40.014 62.404,41.786 65.089,41.786C66.361,41.786 67.612,41.404 68.916,40.62L69.13,40.491L69.595,43.153L69.492,43.214C68.154,43.979 66.503,44.403 64.843,44.403Z" style="fill:rgb(254,255,254);fill-rule:nonzero;"/>
            </g>
            <g transform="matrix(4.16667,0,0,4.16667,0,1.81899e-12)">
                <path d="M49.503,91.307C34.019,86.92 26.628,76.697 26.628,62.123L26.628,27.625L72.378,27.625L72.378,62.123C72.378,76.697 64.987,86.92 49.503,91.307ZM24.753,25.75L24.753,62.358C24.753,77.743 33.124,88.881 49.503,93.25C65.882,88.881 74.253,77.743 74.253,62.358L74.253,25.75L24.753,25.75Z" style="fill:rgb(254,255,254);fill-rule:nonzero;"/>
            </g>
            <g transform="matrix(4.16667,0,0,4.16667,0,1.81899e-12)">
                <path d="M49.504,49.131C52.955,49.131 53.421,50.531 56.201,50.514C58.971,50.531 59.445,49.131 62.896,49.131C66.347,49.131 66.822,50.531 69.594,50.514L69.594,47.3C66.822,47.318 66.347,45.935 62.896,45.935C59.445,45.935 58.971,47.318 56.201,47.3C53.421,47.318 52.955,45.935 49.504,45.935C46.053,45.935 45.586,47.318 42.807,47.3C40.037,47.318 39.562,45.935 36.111,45.935C32.66,45.935 32.184,47.318 29.414,47.3L29.414,50.514C32.184,50.531 32.66,49.131 36.111,49.131C39.562,49.131 40.037,50.531 42.807,50.514C45.586,50.531 46.053,49.131 49.504,49.131Z" style="fill:rgb(254,255,254);fill-rule:nonzero;"/>
            </g>
            <g transform="matrix(4.16667,0,0,4.16667,0,1.81899e-12)">
                <path d="M51.69,54.939C53.356,55.337 54.147,56.098 56.201,56.085C58.971,56.102 59.445,54.702 62.896,54.702C66.347,54.702 66.822,56.102 69.594,56.085L69.594,52.871C66.822,52.89 66.347,51.507 62.896,51.507C59.445,51.507 58.971,52.89 56.201,52.871C53.97,52.886 53.228,51.998 51.237,51.647L51.69,54.939Z" style="fill:rgb(254,255,254);fill-rule:nonzero;"/>
            </g>
            <g transform="matrix(4.16667,0,0,4.16667,0,1.81899e-12)">
                <path d="M42.807,56.085C44.859,56.098 45.652,55.337 47.315,54.939L47.77,51.647C45.779,51.998 45.037,52.886 42.807,52.871C40.037,52.89 39.562,51.507 36.111,51.507C32.66,51.507 32.184,52.89 29.414,52.871L29.414,56.085C32.184,56.102 32.66,54.702 36.111,54.702C39.562,54.702 40.037,56.102 42.807,56.085Z" style="fill:rgb(254,255,254);fill-rule:nonzero;"/>
            </g>
            <g transform="matrix(4.16667,0,0,4.16667,0,1.81899e-12)">
                <path d="M52.491,60.744C53.432,61.068 54.156,61.463 55.274,61.603L57.203,58.38C56.901,58.421 56.573,58.444 56.201,58.442C54.292,58.454 53.474,57.806 52.03,57.399L52.491,60.744Z" style="fill:rgb(254,255,254);fill-rule:nonzero;"/>
            </g>
            <g transform="matrix(4.16667,0,0,4.16667,0,1.81899e-12)">
                <path d="M61.326,60.388C61.777,60.317 62.29,60.273 62.896,60.273C66.347,60.273 66.822,61.673 69.594,61.656L69.594,58.442C66.822,58.46 66.347,57.078 62.896,57.078C62.605,57.078 62.335,57.088 62.083,57.106L61.326,60.388Z" style="fill:rgb(254,255,254);fill-rule:nonzero;"/>
            </g>
            <g transform="matrix(4.16667,0,0,4.16667,0,1.81899e-12)">
                <path d="M37.681,60.388L36.923,57.106C36.671,57.088 36.402,57.078 36.111,57.078C32.66,57.078 32.184,58.46 29.414,58.442L29.414,61.656C32.184,61.673 32.66,60.273 36.111,60.273C36.717,60.273 37.23,60.317 37.681,60.388Z" style="fill:rgb(254,255,254);fill-rule:nonzero;"/>
            </g>
            <g transform="matrix(4.16667,0,0,4.16667,0,1.81899e-12)">
                <path d="M43.732,61.603C44.851,61.463 45.574,61.068 46.516,60.744L46.977,57.399C45.533,57.807 44.715,58.454 42.807,58.442C42.435,58.444 42.105,58.421 41.803,58.38L43.732,61.603Z" style="fill:rgb(254,255,254);fill-rule:nonzero;"/>
            </g>
            <g transform="matrix(4.16667,0,0,4.16667,0,1.81899e-12)">
                <path d="M104.188,44.166L101.764,44.166L101.764,33.951L97.959,33.951L97.959,31.792L107.852,31.792L108.176,33.951L104.188,33.951L104.188,44.166Z" style="fill:rgb(254,255,254);fill-rule:nonzero;"/>
            </g>
            <g transform="matrix(4.16667,0,0,4.16667,0,1.81899e-12)">
                <path d="M122.907,44.166L120.484,44.166L120.484,38.831L115.155,38.831L115.155,44.166L112.757,44.166L112.757,31.792L115.155,31.792L115.155,36.625L120.484,36.625L120.484,31.792L122.907,31.792L122.907,44.166Z" style="fill:rgb(254,255,254);fill-rule:nonzero;"/>
            </g>
            <g transform="matrix(4.16667,0,0,4.16667,0,1.81899e-12)">
                <path d="M137.767,44.166L129.813,44.166L129.813,31.792L137.6,31.792L137.6,33.929L132.214,33.929L132.214,36.668L136.503,36.668L136.854,38.806L132.214,38.806L132.214,42.029L137.767,42.029L137.767,44.166Z" style="fill:rgb(254,255,254);fill-rule:nonzero;"/>
            </g>
            <g transform="matrix(4.16667,0,0,4.16667,0,1.81899e-12)">
                <path d="M156.418,44.403C153.255,44.403 151.369,42.507 151.369,39.328L151.369,31.792L153.767,31.792L153.767,39.232C153.767,41.221 154.715,42.315 156.44,42.315C158.208,42.315 159.141,41.269 159.141,39.283L159.141,31.792L161.562,31.792L161.562,39.232C161.562,42.473 159.638,44.403 156.418,44.403Z" style="fill:rgb(254,255,254);fill-rule:nonzero;"/>
            </g>
            <g transform="matrix(4.16667,0,0,4.16667,0,1.81899e-12)">
                <path d="M178.262,44.166L176.182,44.166L170.295,35.494L170.295,44.166L168.088,44.166L168.088,31.792L170.434,31.792L176.053,40.099L176.053,31.792L178.262,31.792L178.262,44.166Z" style="fill:rgb(254,255,254);fill-rule:nonzero;"/>
            </g>
            <g transform="matrix(0.893935,0,0,0.893935,-16.9376,-1610.29)">
                <path d="M518.634,2335.73L499.877,2309.29C508.112,2307.09 513.693,2301.42 513.693,2291.81C513.693,2280.28 505.641,2273.88 492.74,2273.88L475.538,2273.88L475.538,2337.01L484.139,2337.01L484.139,2310.38L490.635,2310.38L509.942,2337.65L518.634,2335.73ZM505.092,2292.27C505.092,2299.4 499.785,2303.16 491.459,2303.16L484.139,2303.16L484.139,2281.47L492.374,2281.47C500.792,2281.47 505.092,2285.41 505.092,2292.27Z" style="fill:rgb(254,255,254);fill-rule:nonzero;"/>
                <path d="M557.49,2332.07L556.3,2324.75C551.542,2328.5 546.967,2330.97 540.654,2330.97C533.059,2330.97 528.21,2326.21 527.935,2316.06L557.581,2316.06L557.581,2314.32C557.581,2302.24 551.725,2292.45 539.007,2292.45C528.027,2292.45 519.792,2301.05 519.792,2315.05C519.792,2331.06 528.667,2337.93 540.013,2337.93C547.242,2337.93 552.823,2335.73 557.49,2332.07ZM538.915,2298.86C545.229,2298.86 548.34,2302.88 549.346,2309.93L528.301,2309.93C529.582,2302.51 533.883,2298.86 538.915,2298.86Z" style="fill:rgb(254,255,254);fill-rule:nonzero;"/>
                <path d="M595.796,2324.84C595.796,2316.51 590.947,2313.4 580.15,2310.66C573.287,2308.92 571.091,2307.27 571.091,2304.35C571.091,2301.23 573.653,2299.31 578.594,2299.31C583.169,2299.31 588.019,2300.87 591.862,2303.06L593.143,2295.38C589.025,2293.55 584.176,2292.45 578.777,2292.45C569.261,2292.45 563.405,2297.57 563.405,2304.53C563.405,2312.31 567.523,2315.42 577.771,2317.98C585.64,2319.9 588.11,2321.36 588.11,2325.39C588.11,2329.05 584.816,2331.16 579.235,2331.16C573.287,2331.16 567.98,2328.96 563.863,2326.12L562.673,2333.81C566.425,2335.91 572.83,2337.93 578.594,2337.93C589.849,2337.93 595.796,2332.8 595.796,2324.84Z" style="fill:rgb(254,255,254);fill-rule:nonzero;"/>
                <path d="M638.403,2332.07L637.213,2324.75C632.455,2328.5 627.88,2330.97 621.567,2330.97C613.972,2330.97 609.123,2326.21 608.848,2316.06L638.494,2316.06L638.494,2314.32C638.494,2302.24 632.638,2292.45 619.92,2292.45C608.94,2292.45 600.705,2301.05 600.705,2315.05C600.705,2331.06 609.58,2337.93 620.926,2337.93C628.155,2337.93 633.736,2335.73 638.403,2332.07ZM619.828,2298.86C626.142,2298.86 629.253,2302.88 630.259,2309.93L609.214,2309.93C610.495,2302.51 614.796,2298.86 619.828,2298.86Z" style="fill:rgb(254,255,254);fill-rule:nonzero;"/>
                <path d="M679.271,2337.01L679.271,2306.45C679.271,2296.75 674.147,2292.45 663.533,2292.45C656.762,2292.45 651.821,2294.01 646.606,2296.11L647.704,2303.16C652.462,2301.05 657.494,2299.4 662.801,2299.4C667.834,2299.4 671.128,2301.33 671.128,2306.82L671.128,2308.65C652.919,2310.57 643.586,2314.87 643.586,2325.76C643.586,2333.17 648.527,2337.93 656.396,2337.93C663.533,2337.93 668.291,2334.72 671.768,2331.16L672.683,2337.01L679.271,2337.01ZM671.128,2325.02C667.468,2328.78 662.893,2331.16 658.135,2331.16C654.017,2331.16 651.638,2328.87 651.638,2325.3C651.638,2320.82 655.024,2316.42 671.128,2314.87L671.128,2325.02Z" style="fill:rgb(254,255,254);fill-rule:nonzero;"/>
                <path d="M713.735,2300.23L712.454,2292.45C705.317,2292.82 700.284,2297.3 697.173,2302.24L695.801,2293.37L689.304,2293.37L689.304,2337.01L697.448,2337.01L697.448,2311.21C700.376,2305.44 706.506,2300.59 713.735,2300.23Z" style="fill:rgb(254,255,254);fill-rule:nonzero;"/>
                <path d="M750.943,2333.26L749.753,2325.94C745.27,2329.78 741.427,2330.79 737.035,2330.79C729.349,2330.79 723.95,2325.76 723.95,2315.14C723.95,2304.99 728.983,2299.59 736.12,2299.59C741.152,2299.59 745.27,2301.14 749.296,2304.44L750.485,2296.48C747.191,2294.1 742.616,2292.45 736.211,2292.45C724.865,2292.45 715.715,2300.32 715.715,2315.23C715.715,2329.78 724.316,2337.93 736.028,2337.93C741.884,2337.93 746.459,2336.64 750.943,2333.26Z" style="fill:rgb(254,255,254);fill-rule:nonzero;"/>
                <path d="M794.099,2337.01L794.099,2305.26C794.099,2297.39 789.707,2292.45 781.472,2292.45C775.25,2292.45 770.217,2295.93 766.649,2299.13L766.649,2270.95L758.505,2272.23L758.505,2337.01L766.649,2337.01L766.649,2306.82C770.583,2302.61 774.975,2299.77 779.276,2299.77C784.034,2299.77 785.955,2302.79 785.955,2307.27L785.955,2337.01L794.099,2337.01Z" style="fill:rgb(254,255,254);fill-rule:nonzero;"/>
                <path d="M868.607,2332.07L867.326,2323.93C862.293,2327.59 856.346,2330.24 849.575,2330.24C836.856,2330.24 829.17,2320.63 829.17,2305.44C829.17,2290.25 836.765,2280.55 849.575,2280.55C856.346,2280.55 861.744,2283.21 866.319,2286.69L867.6,2277.9C862.751,2274.61 857.169,2272.69 849.666,2272.69C831.915,2272.69 820.295,2285.95 820.295,2305.53C820.295,2325.02 831.732,2338.2 849.483,2338.2C856.712,2338.2 863.757,2335.64 868.607,2332.07Z" style="fill:rgb(254,255,254);fill-rule:nonzero;"/>
                <path d="M914.416,2315.23C914.416,2300.87 905.815,2292.45 894.103,2292.45C882.483,2292.45 874.065,2300.87 874.065,2315.23C874.065,2329.6 882.483,2337.93 894.103,2337.93C905.815,2337.93 914.416,2329.6 914.416,2315.23ZM906.181,2315.23C906.181,2324.38 902.155,2331.16 894.103,2331.16C886.417,2331.16 882.3,2324.2 882.3,2315.23C882.3,2306.08 886.234,2299.31 894.103,2299.31C901.972,2299.31 906.181,2306.27 906.181,2315.23Z" style="fill:rgb(254,255,254);fill-rule:nonzero;"/>
                <path d="M984.107,2337.01L984.107,2305.26C984.107,2297.39 980.081,2292.45 971.755,2292.45C965.624,2292.45 960.317,2295.93 956.383,2299.68C954.736,2295.2 951.259,2292.45 944.854,2292.45C938.723,2292.45 933.782,2295.93 929.665,2299.68L928.658,2293.37L922.162,2293.37L922.162,2337.01L930.305,2337.01L930.305,2306.82C934.24,2302.61 938.357,2299.77 942.658,2299.77C947.416,2299.77 949.063,2302.79 949.063,2307.27L949.063,2337.01L957.206,2337.01L957.206,2306.82C961.141,2302.61 965.258,2299.77 969.559,2299.77C974.317,2299.77 975.964,2302.79 975.964,2307.27L975.964,2337.01L984.107,2337.01Z" style="fill:rgb(254,255,254);fill-rule:nonzero;"/>
                <path d="M1056.09,2337.01L1056.09,2305.26C1056.09,2297.39 1052.06,2292.45 1043.73,2292.45C1037.6,2292.45 1032.3,2295.93 1028.36,2299.68C1026.71,2295.2 1023.24,2292.45 1016.83,2292.45C1010.7,2292.45 1005.76,2295.93 1001.64,2299.68L1000.64,2293.37L994.14,2293.37L994.14,2337.01L1002.28,2337.01L1002.28,2306.82C1006.22,2302.61 1010.34,2299.77 1014.64,2299.77C1019.39,2299.77 1021.04,2302.79 1021.04,2307.27L1021.04,2337.01L1029.18,2337.01L1029.18,2306.82C1033.12,2302.61 1037.24,2299.77 1041.54,2299.77C1046.3,2299.77 1047.94,2302.79 1047.94,2307.27L1047.94,2337.01L1056.09,2337.01Z" style="fill:rgb(254,255,254);fill-rule:nonzero;"/>
                <path d="M1104,2315.23C1104,2300.87 1095.4,2292.45 1083.69,2292.45C1072.07,2292.45 1063.65,2300.87 1063.65,2315.23C1063.65,2329.6 1072.07,2337.93 1083.69,2337.93C1095.4,2337.93 1104,2329.6 1104,2315.23ZM1095.76,2315.23C1095.76,2324.38 1091.74,2331.16 1083.69,2331.16C1076,2331.16 1071.88,2324.2 1071.88,2315.23C1071.88,2306.08 1075.82,2299.31 1083.69,2299.31C1091.56,2299.31 1095.76,2306.27 1095.76,2315.23Z" style="fill:rgb(254,255,254);fill-rule:nonzero;"/>
                <path d="M1147.34,2337.01L1147.34,2305.26C1147.34,2297.39 1142.95,2292.45 1134.71,2292.45C1128.49,2292.45 1123.37,2295.93 1119.25,2299.68L1118.24,2293.37L1111.75,2293.37L1111.75,2337.01L1119.89,2337.01L1119.89,2306.82C1123.82,2302.61 1128.21,2299.77 1132.52,2299.77C1137.27,2299.77 1139.19,2302.79 1139.19,2307.27L1139.19,2337.01L1147.34,2337.01Z" style="fill:rgb(254,255,254);fill-rule:nonzero;"/>
                <path d="M1187.84,2324.84C1187.84,2316.51 1182.99,2313.4 1172.19,2310.66C1165.33,2308.92 1163.13,2307.27 1163.13,2304.35C1163.13,2301.23 1165.7,2299.31 1170.64,2299.31C1175.21,2299.31 1180.06,2300.87 1183.91,2303.06L1185.19,2295.38C1181.07,2293.55 1176.22,2292.45 1170.82,2292.45C1161.31,2292.45 1155.45,2297.57 1155.45,2304.53C1155.45,2312.31 1159.57,2315.42 1169.82,2317.98C1177.68,2319.9 1180.15,2321.36 1180.15,2325.39C1180.15,2329.05 1176.86,2331.16 1171.28,2331.16C1165.33,2331.16 1160.02,2328.96 1155.91,2326.12L1154.72,2333.81C1158.47,2335.91 1164.87,2337.93 1170.64,2337.93C1181.89,2337.93 1187.84,2332.8 1187.84,2324.84Z" style="fill:rgb(254,255,254);fill-rule:nonzero;"/>
            </g>
            <g transform="matrix(4.16667,0,0,4.16667,0,1.81899e-12)">
                <rect x="185.14" y="31.792" width="2.423" height="12.374" style="fill:rgb(254,255,254);fill-rule:nonzero;"/>
            </g>
            <g transform="matrix(4.16667,0,0,4.16667,0,1.81899e-12)">
                <path d="M199.288,44.355L197.112,44.355L192.337,32.088L194.761,31.559L198.292,41.219L201.75,31.792L204.191,31.792L199.288,44.355Z" style="fill:rgb(254,255,254);fill-rule:nonzero;"/>
            </g>
            <g transform="matrix(4.16667,0,0,4.16667,0,1.81899e-12)">
                <path d="M216.708,44.166L208.755,44.166L208.755,31.792L216.54,31.792L216.54,33.929L211.157,33.929L211.157,36.668L215.443,36.668L215.796,38.806L211.157,38.806L211.157,42.029L216.708,42.029L216.708,44.166Z" style="fill:rgb(254,255,254);fill-rule:nonzero;"/>
            </g>
            <g transform="matrix(4.16667,0,0,4.16667,0,1.81899e-12)">
                <path d="M225.184,37.554L226.645,37.554C228.138,37.554 228.961,36.889 228.961,35.668C228.961,34.208 227.701,33.903 226.645,33.903L225.184,33.903L225.184,37.554ZM229.845,44.323L226.319,39.478L225.184,39.478L225.184,44.166L222.782,44.166L222.782,31.792L226.667,31.792C229.605,31.792 231.361,33.23 231.361,35.647C231.361,37.335 230.51,38.538 228.899,39.147L232.333,43.761L229.845,44.323Z" style="fill:rgb(254,255,254);fill-rule:nonzero;"/>
            </g>
            <g transform="matrix(4.16667,0,0,4.16667,0,1.81899e-12)">
                <path d="M241.148,44.33C239.837,44.33 238.336,44.006 236.941,43.413L236.848,43.376L237.207,41.173L237.353,41.251C238.592,41.899 240.118,42.315 241.246,42.315C242.607,42.315 243.489,41.713 243.489,40.79C243.489,39.869 242.914,39.513 241.179,38.919C238.584,38.013 237.269,37.195 237.269,35.237C237.269,33.111 238.992,31.622 241.457,31.622C242.709,31.622 243.978,31.883 245.023,32.35L245.109,32.391L244.758,34.639L244.605,34.559C243.451,33.957 242.397,33.666 241.388,33.666C240.309,33.666 239.498,34.227 239.498,34.974C239.498,35.8 240.06,36.115 241.976,36.774C244.403,37.621 245.722,38.469 245.722,40.526C245.722,42.798 243.884,44.33 241.148,44.33Z" style="fill:rgb(254,255,254);fill-rule:nonzero;"/>
            </g>
            <g transform="matrix(4.16667,0,0,4.16667,0,1.81899e-12)">
                <rect x="251.71" y="31.792" width="2.423" height="12.374" style="fill:rgb(254,255,254);fill-rule:nonzero;"/>
            </g>
            <g transform="matrix(4.16667,0,0,4.16667,0,1.81899e-12)">
                <path d="M265.031,44.166L262.611,44.166L262.611,33.951L258.808,33.951L258.808,31.792L268.699,31.792L269.022,33.951L265.031,33.951L265.031,44.166Z" style="fill:rgb(254,255,254);fill-rule:nonzero;"/>
            </g>
            <g transform="matrix(4.16667,0,0,4.16667,0,1.81899e-12)">
                <path d="M277.974,44.166L275.551,44.166L275.551,39.389L271.125,32.09L273.584,31.563L276.795,37.192L279.908,31.792L282.567,31.792L277.974,39.363L277.974,44.166Z" style="fill:rgb(254,255,254);fill-rule:nonzero;"/>
            </g>
            <g transform="matrix(4.16667,0,0,4.16667,0,1.81899e-12)">
                <path d="M298.044,33.64C295.944,33.64 294.527,35.379 294.527,37.965C294.527,40.501 296.007,42.341 298.044,42.341C300.13,42.341 301.534,40.592 301.534,37.991C301.534,35.473 300.065,33.64 298.044,33.64ZM298.044,44.403C295.078,44.403 292.083,42.2 292.083,37.991C292.083,33.764 295.078,31.557 298.044,31.557C300.994,31.557 303.976,33.754 303.976,37.965C303.976,42.191 300.994,44.403 298.044,44.403Z" style="fill:rgb(254,255,254);fill-rule:nonzero;"/>
            </g>
            <g transform="matrix(4.16667,0,0,4.16667,0,1.81899e-12)">
                <path d="M311.939,44.166L309.546,44.166L309.546,31.792L317.134,31.792L317.134,33.929L311.939,33.929L311.939,36.861L316.016,36.861L316.367,38.997L311.939,38.997L311.939,44.166Z" style="fill:rgb(254,255,254);fill-rule:nonzero;"/>
            </g>
            <g transform="matrix(4.16667,0,0,4.16667,0,1.81899e-12)">
                <path d="M332.534,36.719L334.111,36.719C335.49,36.719 336.186,36.206 336.186,35.193C336.186,34.61 335.977,33.833 334.182,33.833L332.534,33.833L332.534,36.719ZM332.534,42.149L334.324,42.149C335.932,42.149 336.712,41.602 336.712,40.476C336.712,39.29 335.92,38.685 334.35,38.685L332.534,38.685L332.534,42.149ZM334.302,44.166L330.23,44.166L330.23,31.792L334.276,31.792C336.884,31.792 338.438,32.992 338.438,34.999C338.438,36.185 337.924,37.062 336.899,37.608C338.286,38.113 338.995,39.077 338.995,40.476C338.995,42.853 337.324,44.166 334.302,44.166Z" style="fill:rgb(254,255,254);fill-rule:nonzero;"/>
            </g>
            <g transform="matrix(4.16667,0,0,4.16667,0,1.81899e-12)">
                <path d="M347.248,37.554L348.704,37.554C350.194,37.554 351.018,36.889 351.018,35.668C351.018,34.208 349.762,33.903 348.704,33.903L347.248,33.903L347.248,37.554ZM351.899,44.323L348.374,39.478L347.248,39.478L347.248,44.166L344.847,44.166L344.847,31.792L348.728,31.792C351.666,31.792 353.418,33.23 353.418,35.647C353.418,37.335 352.567,38.538 350.959,39.147L354.392,43.761L351.899,44.323Z" style="fill:rgb(254,255,254);fill-rule:nonzero;"/>
            </g>
            <g transform="matrix(4.16667,0,0,4.16667,0,1.81899e-12)">
                <rect x="359.689" y="31.792" width="2.427" height="12.374" style="fill:rgb(254,255,254);fill-rule:nonzero;"/>
            </g>
            <g transform="matrix(4.16667,0,0,4.16667,0,1.81899e-12)">
                <path d="M373.031,44.166L370.611,44.166L370.611,33.951L366.807,33.951L366.807,31.792L376.699,31.792L377.021,33.951L373.031,33.951L373.031,44.166Z" style="fill:rgb(254,255,254);fill-rule:nonzero;"/>
            </g>
            <g transform="matrix(4.16667,0,0,4.16667,0,1.81899e-12)">
                <rect x="381.448" y="31.792" width="2.424" height="12.374" style="fill:rgb(254,255,254);fill-rule:nonzero;"/>
            </g>
            <g transform="matrix(4.16667,0,0,4.16667,0,1.81899e-12)">
                <path d="M393.865,44.33C392.551,44.33 391.056,44.006 389.655,43.413L389.565,43.376L389.917,41.173L390.066,41.251C391.312,41.899 392.84,42.315 393.959,42.315C395.321,42.315 396.205,41.713 396.205,40.79C396.205,39.869 395.628,39.513 393.893,38.919C391.304,38.013 389.982,37.195 389.982,35.237C389.982,33.111 391.71,31.622 394.178,31.622C395.427,31.622 396.691,31.883 397.738,32.35L397.826,32.391L397.476,34.639L397.325,34.559C396.17,33.957 395.114,33.666 394.102,33.666C393.028,33.666 392.215,34.227 392.215,34.974C392.215,35.8 392.773,36.115 394.693,36.774C397.118,37.621 398.434,38.469 398.434,40.526C398.434,42.798 396.598,44.33 393.865,44.33Z" style="fill:rgb(254,255,254);fill-rule:nonzero;"/>
            </g>
            <g transform="matrix(4.16667,0,0,4.16667,0,1.81899e-12)">
                <path d="M413.854,44.166L411.431,44.166L411.431,38.831L406.105,38.831L406.105,44.166L403.707,44.166L403.707,31.792L406.105,31.792L406.105,36.625L411.431,36.625L411.431,31.792L413.854,31.792L413.854,44.166Z" style="fill:rgb(254,255,254);fill-rule:nonzero;"/>
            </g>
            <g transform="matrix(4.16667,0,0,4.16667,0,1.81899e-12)">
                <path d="M432.437,44.403C428.874,44.403 426.478,41.837 426.478,38.013C426.478,34.151 428.874,31.557 432.437,31.557C433.85,31.557 434.984,31.854 435.997,32.505L436.065,32.55L435.683,34.813L435.52,34.693C434.542,33.957 433.59,33.615 432.511,33.615C430.282,33.615 428.949,35.256 428.949,37.991C428.949,40.688 430.327,42.363 432.558,42.363C433.625,42.363 434.737,41.982 435.764,41.263L435.923,41.149L436.255,43.265L436.187,43.305C435.113,44.012 433.784,44.403 432.437,44.403Z" style="fill:rgb(254,255,254);fill-rule:nonzero;"/>
            </g>
            <g transform="matrix(4.16667,0,0,4.16667,0,1.81899e-12)">
                <path d="M446.66,33.64C444.557,33.64 443.145,35.379 443.145,37.965C443.145,40.501 444.623,42.341 446.66,42.341C448.742,42.341 450.147,40.592 450.147,37.991C450.147,35.473 448.68,33.64 446.66,33.64ZM446.66,44.403C443.694,44.403 440.699,42.2 440.699,37.991C440.699,33.764 443.694,31.557 446.66,31.557C449.604,31.557 452.592,33.754 452.592,37.965C452.592,42.191 449.604,44.403 446.66,44.403Z" style="fill:rgb(254,255,254);fill-rule:nonzero;"/>
            </g>
            <g transform="matrix(4.16667,0,0,4.16667,0,1.81899e-12)">
                <path d="M465.212,44.166L457.892,44.166L457.892,31.792L460.291,31.792L460.291,42.051L464.869,42.051L465.212,44.166Z" style="fill:rgb(254,255,254);fill-rule:nonzero;"/>
            </g>
            <g transform="matrix(4.16667,0,0,4.16667,0,1.81899e-12)">
                <path d="M474.527,44.403C471.366,44.403 469.478,42.507 469.478,39.328L469.478,31.792L471.878,31.792L471.878,39.232C471.878,41.221 472.824,42.315 474.553,42.315C476.316,42.315 477.245,41.269 477.245,39.28L477.245,31.792L479.674,31.792L479.674,39.232C479.674,42.473 477.748,44.403 474.527,44.403Z" style="fill:rgb(254,255,254);fill-rule:nonzero;"/>
            </g>
            <g transform="matrix(4.16667,0,0,4.16667,0,1.81899e-12)">
                <path d="M494.033,44.212L491.713,44.212L488.412,34.828L487.725,44.166L485.521,44.166L486.496,31.792L489.758,31.792L492.997,41.271L496.279,31.792L499.471,31.792L500.446,44.166L498.047,44.166L497.34,34.828L494.033,44.212Z" style="fill:rgb(254,255,254);fill-rule:nonzero;"/>
            </g>
            <g transform="matrix(4.16667,0,0,4.16667,0,1.81899e-12)">
                <path d="M509.232,36.719L510.807,36.719C512.182,36.719 512.88,36.206 512.88,35.193C512.88,34.61 512.677,33.833 510.878,33.833L509.232,33.833L509.232,36.719ZM509.232,42.149L511.016,42.149C512.625,42.149 513.409,41.602 513.409,40.476C513.409,39.29 512.614,38.685 511.043,38.685L509.232,38.685L509.232,42.149ZM510.996,44.166L506.927,44.166L506.927,31.792L510.971,31.792C513.584,31.792 515.141,32.992 515.141,34.999C515.141,36.185 514.62,37.062 513.598,37.608C514.979,38.113 515.689,39.077 515.689,40.476C515.689,42.853 514.024,44.166 510.996,44.166Z" style="fill:rgb(254,255,254);fill-rule:nonzero;"/>
            </g>
            <g transform="matrix(4.16667,0,0,4.16667,0,1.81899e-12)">
                <rect x="521.761" y="31.792" width="2.426" height="12.374" style="fill:rgb(254,255,254);fill-rule:nonzero;"/>
            </g>
            <g transform="matrix(4.16667,0,0,4.16667,0,1.81899e-12)">
                <path d="M533.148,38.991L536.742,38.991C536.521,38.36 535.618,35.93 534.955,34.139L533.148,38.991ZM538.748,44.399L537.55,41.127L532.361,41.127L531.236,44.166L528.865,44.166L533.745,31.648L536.309,31.648L541.125,43.866L538.748,44.399Z" style="fill:rgb(254,255,254);fill-rule:nonzero;"/>
            </g>
            <g transform="matrix(0.101812,0,0,0.101812,490.512,216.735)">
                <path d="M-369.075,1477.42L-389.851,1342.38L-655.323,1342.38L-655.323,681.004L-808.835,681.004L-808.835,1477.42L-369.075,1477.42Z" style="fill:rgb(254,255,254);fill-rule:nonzero;"/>
                <path d="M-113.992,747.949C-113.992,700.626 -150.927,667.153 -195.941,667.153C-242.11,667.153 -279.046,700.626 -279.046,747.949C-279.046,794.118 -242.11,826.436 -195.941,826.436C-150.927,826.436 -113.992,794.118 -113.992,747.949ZM-127.842,1477.42L-127.842,919.929L-266.349,919.929L-266.349,1477.42L-127.842,1477.42Z" style="fill:rgb(254,255,254);fill-rule:nonzero;"/>
                <path d="M525.449,1183.09C525.449,996.107 433.111,908.386 315.38,908.386C244.972,908.386 193.032,945.322 157.251,982.257L157.251,644.069L18.744,665.999L18.744,1447.41C87.998,1470.49 160.714,1484.34 247.281,1484.34C413.489,1484.34 525.449,1388.54 525.449,1183.09ZM385.788,1191.17C385.788,1318.14 332.693,1371.23 244.972,1371.23C205.729,1371.23 186.107,1366.61 157.251,1356.23L157.251,1103.45C191.878,1061.9 233.43,1030.73 279.599,1030.73C341.927,1030.73 385.788,1083.83 385.788,1191.17Z" style="fill:rgb(254,255,254);fill-rule:nonzero;"/>
                <path d="M974.442,1045.74L952.512,908.386C865.945,913.003 810.542,967.252 773.607,1031.89L756.294,919.929L638.563,919.929L638.563,1477.42L777.07,1477.42L777.07,1157.7C816.313,1097.68 887.875,1051.51 974.442,1045.74Z" style="fill:rgb(254,255,254);fill-rule:nonzero;"/>
                <path d="M1484.61,1477.42L1484.61,1095.37C1484.61,961.481 1413.05,908.386 1268.77,908.386C1179.89,908.386 1111.8,928.008 1047.16,953.401L1064.47,1064.21C1124.49,1037.66 1185.66,1019.19 1250.3,1019.19C1311.48,1019.19 1346.1,1042.28 1346.1,1102.3L1346.1,1118.45C1121.03,1140.38 1010.22,1199.25 1010.22,1334.3C1010.22,1431.25 1073.71,1488.96 1168.35,1488.96C1251.46,1488.96 1309.17,1452.03 1354.18,1404.7L1365.72,1477.42L1484.61,1477.42ZM1346.1,1323.91C1308.01,1362 1263,1383.93 1215.67,1383.93C1172.97,1383.93 1147.58,1359.69 1147.58,1319.29C1147.58,1266.2 1185.66,1218.87 1346.1,1199.25L1346.1,1323.91Z" style="fill:rgb(254,255,254);fill-rule:nonzero;"/>
                <path d="M1957.84,1045.74L1935.91,908.386C1849.34,913.003 1793.94,967.252 1757.01,1031.89L1739.69,919.929L1621.96,919.929L1621.96,1477.42L1760.47,1477.42L1760.47,1157.7C1799.71,1097.68 1871.28,1051.51 1957.84,1045.74Z" style="fill:rgb(254,255,254);fill-rule:nonzero;"/>
                <path d="M2530.34,919.929L2392.98,919.929L2268.33,1308.9L2139.05,911.849L1994.78,930.317L2196.77,1479.73L2184.07,1516.66C2166.76,1557.06 2134.44,1575.53 2094.04,1575.53C2067.49,1575.53 2047.87,1572.07 2029.4,1567.45L2047.87,1681.72C2060.57,1685.18 2074.42,1687.49 2098.66,1687.49C2206,1687.49 2269.48,1644.78 2319.11,1507.43L2530.34,919.929Z" style="fill:rgb(254,255,254);fill-rule:nonzero;"/>
            </g>
        </g>
    </g>
</svg>
